<?xml version="1.0" encoding="utf-8"?>
<!-- Generator: Adobe Illustrator 25.0.1, SVG Export Plug-In . SVG Version: 6.00 Build 0)  -->
<svg version="1.1" id="Layer_1" xmlns="http://www.w3.org/2000/svg" xmlns:xlink="http://www.w3.org/1999/xlink" x="0px" y="0px"
	 viewBox="0 0 713.6 632.2" style="enable-background:new 0 0 713.6 632.2;" xml:space="preserve">
<style type="text/css">
	.st0{fill:#000001;}
</style>
<g id="a">
</g>
<g id="b">
	<g id="c">
		<g>
			<path class="st0" d="M682,339.4c-0.9-3.4-2.2-6.8-3.7-10c-5.8,6.5-5.8,15-5.8,23.2c-0.2,12.2-0.2,24.3,0.5,36.5
				c1.3,20.9-2.3,41.5-4.6,62.3c-1.7,18,2,37.4,2,55.6c0.1,13.3-1.2,26.5-1.3,39.8c-0.1,11,0.6,21.9,1.2,32.8
				c0.6,11.9-0.4,23.9,0.8,35.8c0.3,2.3,0.6,4.5,0.9,6.7c-0.5-0.2-1.1-0.3-1.6-0.4c-4.5-1-9.2-0.1-13.8-0.1
				c-11.2,0.2-22.3-0.3-33.5-0.8c-26.7-0.7-53.4-4.1-80.1-2.4c-13.2,0.8-26.5,1.7-39.7,2.6c-18.1,0.6-35.9-3.2-54-4.2
				c-13.2-0.8-26.5,0-39.8,0.8c-18.4,1.5-36.9-1-55.3-0.7c-16.4,0.1-32.6,2.5-49,3c-11.3,0.3-22.6-0.5-33.8-0.5
				c-24.7,0-49.3,1.8-73.9,4.2c-5.2,0.5-10.4,0.8-15.7,1c-15.3,0.1-30.4-2.9-45.7-3.2c-9.5-0.3-19.1,0.7-28.6,1.2
				c-8.4,0.2-16.7-0.6-25-0.9c-7.2-0.3-14.4,0.3-21.6,0.6c-2.4,0-4.7-0.1-7.1-0.3c-1.2-0.1-2.3-0.1-3.4,0.2c0-0.4,0-0.8,0-1.2
				c0-0.6,0-1.2,0-1.7c0.2-4.4,0.8-8.8,0.3-13.2c-0.4-5.5-1.7-11-2.5-16.5c0.8-0.6,0.8-1.8,0.7-2.7c-0.3-1.5-0.3-3.1-0.4-4.7
				c0.2-6.1,1.5-12.1,3.4-17.9c4.7-17.4,17.9-30.4,26.5-45.8c2.8-5,8.4-11.5,3.8-17.1c-0.9-1-2.2-2.2-3.7-1.9
				c-1.7,0.8-2.4,2.6-3.5,4c-2.7,3.8-5.4,7.5-7.7,11.5c-5.4,9.2-10.8,18.5-15.9,27.8c1.6-13.7,4.5-27.7,0.8-41.3
				c0.5-0.3,0.7-0.9,0.8-1.4c0.6-1.5,0.5-3.2,0.5-4.9c0.1-5.3,0.6-10.6,0.9-16c-0.3-4.1,2.9-7.2,4.7-10.6c1.8-2.9,3.5-5.9,5.5-8.6
				c4.9-6.8,11.2-12.8,13.9-20.9c3.1-7.9,5.5-16.2,6.2-24.7c0.8-1.7,1.3-3.6,0.3-5.3c-0.6-1.1-2.2-2.8-3.6-2.1l0,0
				C75.9,417.1,69,426.4,62.9,436c-4.6,7.9-8.7,16.2-11.3,25c0.6-3.9,1.1-7.9,1.3-11.9c0.5-7.8-0.4-15.7-1-23.5
				c5.2-2.8,7-10.2,9.8-15.1c4.7-7.4,4.8-15.8,4.3-24.3c0-5.6,0.4-11.4-1.2-16.8c-0.3-0.9-0.6-1.9-0.9-2.8c0.1-0.1,0.1-0.2,0.2-0.3
				c5.6-8.4,12.1-16.7,13.6-26.9c1.1-8.5,0.7-17.1,1.3-25.8c0.2-2-0.9-3.9-2.5-5.1c-0.7-0.6-2.1-0.8-2.5,0.3
				c-3.3,11.6-8.5,22.6-14,33.3c0.7-1.9,1.3-3.9,1.6-6c1.3-5.3,0.8-10.9-0.5-16.3c-0.4-1.9-1.3-5.1-3.8-4.8
				c-0.5,0.2-0.6,0.6-0.7,1.1c-0.4,2.1-0.5,4.3-1,6.4c-1.5,6.7-3.6,13.5-3.9,20.4c0.1,6.3-1.3,12.8-0.5,19c-0.5,1.5-1,3-1.5,4.5
				c-0.2-4.2-0.7-8.3-1.3-12.5c0.1-2.6,0.1-5.1,0-7.6c-0.2-7.2-0.1-14.5,1.1-21.7c0.7-4.3,1.4-8.5,2.3-12.7
				c1.8-7.3,5.9-13.7,7.4-21.1c1.4-8.5,0.8-17.2,1.1-25.8c0.2-4.8,0.5-9.5,2-14c0.4-2.8-2.9-7.6-5.9-6.9l0,0c-1,0.3-1.2,1.4-1.2,2.4
				c-1.2,3.6-3.1,7.1-4.6,10.6c-7.2,16.6-8.8,35-7.6,52.9c-2.8-8.6-5.7-17.1-10-25c-4.3-8.5-9.3-16.9-12.2-26c0-1.2-0.1-2.4-0.9-3.4
				c-0.5-0.7-1.4-1.6-2.3-1.5c-1,0.1-0.9,1.3-0.9,2.1c0,1.8,0.1,3.5,0.1,5.3c0.2,8.7,1,17.4,3,25.8c1.7,6.5,2.6,13.3,5.4,19.5
				c2.7,6.7,7.6,12.2,10.4,18.8c1.7,4.6,2.6,9.4,3.6,14.1c1.4,6.5,3,12.9,3.8,19.6c1.2,8.8,0.9,17.7,0.5,26.5
				c-0.7-4.1-1.4-8.2-2.5-12.2c-2.2-7.9-6.2-15.5-11.5-21.8c-3.5-3.9-7.6-7.1-11.5-10.5c-2.7-2.5-5.6-4.9-7.8-7.8
				c-0.6-1-1.5-2.5-2.9-2.3c-3.1,1.3,6.3,25.6,8.2,28.7c2.6,5.2,6.2,9.7,10.1,14c4.8,5.1,10.1,9.9,12.8,16.6c4.9,10.9,5.1,23,7,34.6
				c0.9,4.3,1.5,8.7,1.9,13c-0.8-0.6-2-1-2.9-1.1c-5.5-5-10-11.5-10.7-19.1c-0.5-6.8-2-13.7-4.8-20c-2-5.3-3.5-10.7-6.2-15.7
				c-0.6-1.1-6.1-8.6-6.9-5.6c0.4,5.2,1.9,10.3,2.7,15.4c2.9,16.8,2.8,43.7,21.7,50.7c1.7,0.6,5.6,1,7.4-0.4
				c0.2,3.8,0.2,7.6-0.1,11.4c-0.3,6.4-0.3,13.1-1.1,19.5c-0.3,3.8-1.1,7.5-1.2,11.3c-6-10.3-12.5-20.3-18.2-30.9
				C24,449,11.3,429.1,6.1,429.7c-2.5,1.3,1,5.1,2,6.7c2.1,2.8,3.8,5.9,5.4,9c4.7,9,5.3,19.6,10.8,28.3c2.6,4.4,5.5,8.5,8.9,12.2
				c3.8,4.2,8.2,7.6,12.2,11.6c1.8,3.6,3.1,7.5,3.9,11.4c0.4,5.4,0.5,10.8-0.5,16.2c-0.4,3.8-0.5,7.7-0.7,11.6
				c-0.3,1.5-0.7,3-1.1,4.5c-0.8-1.9-2.2-3.8-2.8-4.9c0.1,0.1,0.1,0.2,0.2,0.3c-2.9-5.1-4.9-10.7-5.5-16.5
				c-0.4-5.3-0.3-10.9-2.8-15.7c-1.2-2.8-3.2-5.1-5.5-7c-1.7-1.6-3.3-3.2-4.8-5c-0.3-0.5-0.6-1.1-1.1-1.5c-0.5-0.4-1.5-0.7-1.5,0.2
				c-0.1,1,0.7,1.8,1.1,2.7c0-0.1-0.1-0.1-0.1-0.2l0,0c1.6,3.9,2.6,8.1,3.7,12.2c0.9,4.4,1.2,8.9,3,13.1c2,5.5,6.3,9.9,9.6,14.8
				c1.9,2.7,3.2,6.1,4.7,9.2c0.4,0.5,0.7,1,1,1.6c-1.6,6.3-3.3,12.5-3.7,19c-2.8-7.1-6.1-14-10.2-20.6c-4.5-7.3-8.7-15-14.1-21.7
				c-4.1-4.8-8.8-9.2-13.9-13c-1-0.8-3.2-2.6-4.1-0.9c-0.4,0.9,0.1,2.1,0.5,2.9c1.3,2.3,2.4,4.6,3,7.2c1,4.1,1.5,8.4,2.6,12.5
				c2,7.5,5.8,14.3,10.5,20.4c5.2,6.6,11.1,11.8,16.4,18.6c2.6,3.5,4.7,7.3,6.8,11.1c1.3,2.5,1.9,5.3,3.8,7.5
				c1.5,9.1,2.1,18.4,3.7,27.5c0,0,0,0.1,0,0.1c0,2.2,0,4.5,0.9,6.4c0,0.5,0,1.1,0.1,1.6c-0.4,0.4-0.7,1-0.5,1.5
				c0.2,0.4,0.6,0.6,1.1,0.7c0.2,0,0.4,0,0.6,0c0.1,0,0.1,0.1,0.2,0.1c0.4,0.1,0.7,0.1,0.8-0.1c2.8,0,5.6-0.2,8.3,0.3
				c3.6,0.6,7.2,1.5,10.9,2.1c13.7,2.3,27.6,0,41.4,1.8c19.3,2.3,38.7,0.4,58.1-0.2c10.7-0.3,21.3,0.6,32,0.9
				c10.4,0.1,20.7,0.2,31.1,0.1c26.9-0.1,53.2-6.8,80.2-4.7c26.3,3.2,52.8,3.2,79.2,1.5c20.2-0.1,40.5,0.4,60.7-0.6
				c10.2-0.2,20.4-0.5,30.6-0.3c17.4,0.4,34.6,2.5,52,2.7c15.7,0.3,31.4-1,47.1-0.7c14.6,0.3,29,3,43.6,3.6
				c12.1,0.5,24.2,0.1,36.2-1c4.3-0.7,8.4-2.2,12.2-4.2c0.5,0.4,1,0.8,1.6,0.8c0.8-0.1,1.3-0.5,1.4-1.4c0-0.4,0.1-0.7,0.1-1.1
				c0,0,0.1,0,0.1-0.1c0,0-0.1-0.1-0.1-0.1c0-0.9,0-1.8,0-2.7c0.1-3.5-0.1-7-0.3-10.4c-0.5-7.7-0.5-15.4,0.3-23.1
				c2-16.9,5.1-33.9,4.4-51c-0.2-10.5-1.3-21.1-1-31.6c0.3-12.9,1.7-25.7,1.2-38.6c-0.1-17.7-2.5-35.3-2.5-53
				c0.3-13.6,2-27.1,2.5-40.6C681.8,362.4,685,350.7,682,339.4L682,339.4z M58.8,539.1c0.5-1.2,1-2.5,1.6-3.7
				c3.5-7.9,8.9-14.8,14.4-21.4c-7,10.4-14.1,20.8-18.6,32.6C57,544.1,57.8,541.6,58.8,539.1L58.8,539.1z M57.3,460.1
				c0.4-1,0.7-2,1.2-2.9c2.3-5.4,5.7-10.1,9-14.9c3-4.5,5.8-9.1,8.7-13.6c-1.8,8.3-5.4,16.1-10.2,23.1c-2.8,3.9-6.3,7.1-9.4,10.7
				C56.8,461.7,57,460.9,57.3,460.1L57.3,460.1z M27.2,368.1c-3.2-3.6-6.6-7.2-9-11.4c-2.9-5.4-4.9-11.2-6.6-17.1
				c4.5,6,9.9,11.1,15.2,16.4c8.5,9.2,13.3,21.1,14.7,33.5C38.5,381.3,33,374.5,27.2,368.1z M41.1,437.5
				c-8.5-1.2-11.7-10.8-14.8-17.6c-1.8-5-3.6-9.8-4.2-15.1c-0.3-8.3-0.4-17-3.2-25c6,5.9,6.5,14.9,8.5,22.7c1,4.5,2.1,9,3.1,13.5
				c0.9,4,1.7,8.2,3.7,11.9c2,3.9,5.3,6.9,8.8,9.5C42.3,437.5,41.7,437.5,41.1,437.5L41.1,437.5z M22.1,462.7
				c-2.2-5.9-3.3-12.1-5.4-17.9c8.9,12.4,16.8,25.5,22.7,39.6C32.7,478,25.7,471.4,22.1,462.7z M31,510.6c-1.1-4.9-1.7-10-3.6-14.6
				c1.7,1.5,3.5,2.9,5,4.7c1.2,1.7,2,3.8,2.6,5.9c0.9,3.6,0.7,7.3,1.4,11c0.8,4.4,2.2,8.8,3.6,13.1C36.1,524.4,32.8,517.8,31,510.6
				L31,510.6z M11.9,535.4c-1.7-6.2-1.3-12.8-3.3-19c9.3,8.2,16.8,18.2,21.8,29.6c2.9,6.9,5,14,7.3,21
				C28.3,556.1,15.5,550.6,11.9,535.4L11.9,535.4z M52.6,411.8c-0.9,2.8-1.2,5.8-1.1,8.7c-0.3-3.2-0.9-6.3-1.5-9.5
				c0-0.7,0.1-1.4,0-2c0-5.4-0.5-10.9-0.5-16.3c0.8-2.9,1.9-5.6,3.2-8.2c-0.1,0.6-0.1,1.2-0.1,1.8c0,4.9,1.7,9.5,2.4,14.3
				C55.5,404.5,53.7,408.1,52.6,411.8L52.6,411.8z M62,373.4c0.5,5.5,1.4,10.9,1.2,16.4c-0.6,8.5-2,17.5-6.2,25.1
				c-0.1,0.2-0.2,0.3-0.3,0.5c0.1-0.3,0.2-0.6,0.2-1c1.2-4.7,1.8-9.7,0.7-14.5c-0.9-6-3.4-12-3.4-18c2.3-4.1,5.1-8,7.7-12
				C61.8,371,61.8,372.2,62,373.4L62,373.4z M53.7,352c0.7-5.6,2.3-10.9,4.3-16.1c-0.1,2.8,0.5,5.5,1,8.3c-0.5,0.9-0.9,1.8-1.3,2.6
				c-1.6,3.2-3.1,6.4-4.4,9.7C53.3,355,53.4,353.5,53.7,352L53.7,352z M50.6,380.2c1.2-7.2,4-13.9,7.4-20.2
				c5.9-11.1,11.4-22.5,16.2-34.1c-1,12.5-4.3,25-10.6,35.9c-4,6.5-9.9,11.5-13,18.6C50.5,380.3,50.6,380.2,50.6,380.2L50.6,380.2z
				 M56.9,262.1c0.7,10.6-0.4,21.5-2.6,32c-1.6,6.7-4.8,13.1-7,19.7l0-0.1c-0.1-2.5-0.1-5-0.1-7.5C46.3,284.7,46.9,281.1,56.9,262.1
				L56.9,262.1z M33,314.1c-10.6-19-12.7-24.6-12.2-46.7c4.2,8,8.4,16,11.6,24.5c3.9,8.5,7.4,17.1,9.9,26.1c2.1,7.5,1.7,15.3,2.2,23
				C42.1,331.5,38,322.5,33,314.1L33,314.1z"/>
			<path class="st0" d="M710.6,119.6c-5.4-11-6.4-24.5-15.9-33.1c-3.8-3.4-8.6-5.4-12.2-8.9c0-1.3-0.1-2.6-0.2-4
				c1.8-4.8,2-9.9,2.3-15c0.3-4.5,0.6-9,0.8-13.5c3.8,7.9,10.2,13.7,16.6,19.7c2,1.7,3.6,3.7,5.4,5.6c1.3,1.3,2.6,3,4.6,3.3
				c3.1-0.2,1-6.4,0.3-8.2c-3.7-8.8-9-16.3-14.7-24.1c-2.8-3.7-6.1-7-8.6-11c-1.5-2.6-3-5.1-4.5-7.8c-0.8-1.4-1.5-3.9-2.7-5.4
				c-0.6-4.7-1.2-9.4-2.6-13.9c-0.1-0.3-0.3-0.8-0.7-0.8c-0.4-0.1-0.4,1-0.4,1.3c0.1-0.2,0.2-0.5,0.4-0.7c0,0.5,0,1,0,1.5
				c-0.8-1.1-2.4-1.3-3.7-1.3c-3.8-0.2-7.5-0.5-11.3-0.6C651.3,2,639,1.3,626.8,1.1c-22.9-1-45.7,1.9-68.5,3
				c-17.2,0.5-34.4,0.1-51.7,0.7c-20,0.4-39.9,0.8-59.9-0.8c-26.4-1-52.7,1.2-79.1,1.1c-32.6-1.5-65.2,0.8-97.7-2.4
				c-21.7-2.3-43.5-3.4-65.3-2.1c-15.1,0.2-30.1,2.9-45.3,2.7c-8.4,0.1-16.8-0.2-25.2-0.1c-12.7,0.2-25.2,1.9-37.9,2.7
				C88.1,6,79.9,5.1,71.6,5.1c-4.8,0-9.6,0.5-14.3,0.1c-1.9-0.2-4-0.6-5.7,0.3c-0.1-0.2-0.2-0.4-0.2-0.6c-6.6,3.6-4.9,12.1-5.1,18.4
				c0.1,6,0.4,11.9,0.7,17.9c1.1,13.1,1.1,26.2,0,39.3c-2.5,28.5-1.1,57.1,0.2,85.6c0.2,13.6-2.2,27.2-0.1,40.7
				c1.3,6-1.1,12.9,2.6,18.3c0.3,0.2,0.5-0.1,0.4-0.4c0.4-0.5,0.9-1.1,0.9-1.8c0.4-3.2-0.1-6.5-0.1-9.7c0.2-3.7,0.7-7.3,0.8-11
				c0.2-11.6-1.7-23.2-1.1-34.9c1.5-18,3-36.1,2.9-54.2c-0.1-14.7-1.1-29.3-1.5-43.9c-0.3-12.5,1.4-24.9,1.7-37.5
				c0.2-3.5,0.4-7.7,0.7-11.9c0.2-4.3-0.8-8.5-2.3-12.5c1.1,0.2,2.3,0,3.4,0.2c5.8,0.6,11.3,2.6,17.2,2.9c9.2,0.9,18.3,0,27.5,0.6
				c22.6,1.4,44.9-3,67.4-3.9c20.9-0.4,41.8,1.2,62.7,1.4c15.1,0,30.2-0.7,45.3-0.5C288,8,300.1,10,312.4,11.5l-0.2,0
				c18.8,3,37.9,1.8,56.8,0.8c14.6-0.1,29.3,0.8,43.9,0c15-0.5,30-1.9,45-2.7c15.3-0.2,31.4,2.2,46.7,3.1
				c17.3,1.2,34.8,0.5,52.1-1.2c16.2-1.2,32.4-1.2,48.6-1.8c13.9-0.6,27.7-1.1,41.6-1.7c4.2-0.1,8.5-0.1,12.8,0.1
				c2.9,0.1,5.8,0.2,8.7,0.4c3.2,0.3,6.6,0.3,9.3-1.6c0.3-0.2,0.6-0.5,0.8-0.8c0,2.8-0.1,5.6-0.2,8.4c-1.7,2.2-3.4,4.3-5.2,6.4
				c-4.5,5.2-10.3,9-15.4,13.6c-6,5.6-10.2,13-12.1,20.9c-0.8,4-3.3,10.8,0.6,13.7c0.6,0.5,1.7,0.6,2.2-0.1c0.8-1.1,1.6-2.1,2.5-3.2
				c5.4-6.9,12.6-12.2,18.5-18.6c3.6-4.3,6.7-9.1,8.9-14.3c0.1,2.8,0.2,5.5-0.2,8.3c-0.5,3.7-0.8,7.4-1,11.1
				c-0.5,2.2-1.4,4.3-3.5,5.6c-7.7,3.6-10.7,8.2-13.3,16.1c-0.6,1.9-1.3,3.9-1.9,5.8c-0.4,1.4-0.7,3.2,0.8,4.2
				c0.6,0.5,1.3,0.1,1.6-0.5c2-2.9,4.1-5.7,6.3-8.4c3-4.6,7.1-8.5,9.7-13.4c-0.1,4.1,0,8.2,0,12.2c-2.4,2.7-5.7,4.7-8.2,7.3
				c-3.9,3.6-6.9,7.9-9.8,12.3c-3,4.6-5.5,9.7-6.3,15.2c-0.4,3.4-0.9,8.9,3.1,10.3c0.7,0.2,1.3-0.5,1.7-1c2.8-3.2,5.4-6.7,8.1-10
				c2.9-3.6,6.3-7,8.4-11.1c1.2-2.3,2.2-4.8,3-7.3c-0.1,4.5-0.5,8.9-0.9,13.3c-0.2,2.3-0.4,4.7-0.5,7.1c-0.2,0.7-0.4,1.5-0.6,2.2
				c-1.1,4.3-1.7,8.6-3.2,12.8c-0.1,0.5-0.3,0.9-0.5,1.3c-5.8,6.1-11.5,12.2-16.1,19.3c-2.9,4.5-4.5,9.6-6.4,14.5
				c-2.4,6-4.7,16-2.1,22.2c0.7,1.2,2.3,3.2,3.9,2.3c3-4.9,5.4-10.2,8.5-15.1c3.6-6.1,7.8-11.9,10.7-18.4c1.7-3.9,3.1-8,4-12.2
				c0.4-2,0.7-4.1,1-6.1c0.1,3,0.3,6,0.5,9c-0.3,4.6-0.6,9.3-0.5,13.9c0.1,1.5,0.1,3,0.5,4.5c-1.2,9.8-9.8,15.9-16.6,22
				c-4.5,4.2-7.2,9.9-8,16.1c-1,5.7-1.7,11.4-1.5,17.2c0.1,2,0.2,3.9,0.4,5.9c0.1,0.8,0.6,1.8,1.5,2.4c0.7,0.5,1.5,0.3,1.6-0.6
				c0.4-1.9,0.7-3.9,1.2-5.8c1.8-7.2,2.4-14.7,5.8-21.4c2.7-5.7,6.4-10.8,9.9-16c3.1-4.8,7-9.4,7.5-15.2c0.1,1.8,0.1,3.5,0.1,5.3
				c-1.1,2.7-1.5,5.5-2.5,8.3c-1,3-2.6,5.7-4.3,8.4c-5.2,7.9-11,16.3-11,26.2c-0.2,7.2,0.7,14.3,1.7,21.4c0.4,2.4,0.3,5.4,1.2,7.7
				c0.7,1.9,3.7,3.7,4.5,0.9c1.3-4.4,2.4-8.9,3.5-13.4c1.1-4,2-8,3-12c1.3-4.9,3-9.7,4.1-14.7c1.7,14.9-1.4,29.8-0.1,44.7
				c0.3,4.9,0.2,9.8,0.3,14.7c0.1,2.1,0.1,4.5,1.7,6.1c0.3,0.3,0.8,0.6,1.2,0.6c1.4-0.7,2.5-2,3.6-3.2c4.1-4.6,6.9-10.3,8.7-16.2
				c5.9-25.4,2.6-34.6-7.5-57.6c-1.8-4.7-3-9.6-4.6-14.4c-0.2-2.9-0.5-5.8-0.7-8.7c0-0.1,0-0.2,0-0.3c1,1.2,2,2.4,2.9,3.6
				c2.6,3.7,5.8,7.2,8.5,11c4.4,6.4,5.5,15.1,11.5,20.2c1.8,0.8,1.2-1.1,0.8-2c-1.4-3.5-2.7-6.5-4-10c-1.7-4.5-2.6-9.3-4.3-13.8
				c-2.8-7.1-7-10.7-14.2-12.7c-0.6-0.3-1-0.6-1.4-1c0-2.6,0-5.3,0.2-7.9c0.2-6.7,0.3-13.4,0.2-20.2c1.7,5.3,5.2,9.8,8.9,14.1
				c2.9,4.1,5.3,8.4,7.6,12.9c3.2,7.1,5.6,13.8,8.3,21.3c1.2,2.7,1.7,5.9,3.7,8.2c0.9,1,2.5,1.1,2.2-0.6c-0.2-0.8-0.6-1.6-0.8-2.5
				c-1.3-5.7-1.1-11.5-1-17.3c1.4-14.9-4.8-27.4-16.9-36.1c-3.4-2.4-7-4.6-10.4-6.9c-0.7-0.5-1.2-1-1.7-1.7c0-0.1,0-0.2,0-0.3
				c0-2.4,0-4.9-0.1-7.3c1-3.8,0.9-7.9,0.8-11.9c0.4-4.5,1.4-8.8,1.5-13.3c1.8,7.5,7.8,12.6,12.9,17.8c5.3,5.6,9.6,12.1,15.4,17.1
				C716.8,132.6,711.3,121.6,710.6,119.6L710.6,119.6z M670.7,67.9c-3.2,3.8-7.3,6.6-10.2,10.7c1.3-7.9,7.7-13.5,14.1-17.6
				C673.3,63.9,672.5,65.6,670.7,67.9L670.7,67.9z M656.7,111.2c1.3-12.4,9.7-21.1,18.9-28.8C671.4,93.2,663.8,102.2,656.7,111.2z
				 M651.7,211.3c-0.1-4.4,0.6-8.9,2.2-13c1.9-3.6,4.5-6.8,6.6-10.2C657.6,195.8,653.7,203.2,651.7,211.3L651.7,211.3z M671.8,211.6
				c-1.4,4.4-3.7,8.3-5.2,12.6c-1.4,3.5-2.3,7.1-3.2,10.7c-1.3-11.8,0.9-23.8,4.1-35.1c1.9-5.5,5.6-10.2,8.5-15.2
				C675.6,193.7,674.5,202.9,671.8,211.6L671.8,211.6z M682.2,230.2c0.3-5.3,0.1-10.6,0-15.8c0.3-8.7,0.6-17.4-0.3-26
				c5.7,16.6,12.6,34.3,8.3,52c-2.2,8-6,15.5-9.5,23c0-0.9,0-1.8,0-2.7C680.4,250.5,681.7,240.4,682.2,230.2L682.2,230.2z
				 M693.8,183.6c-2-3.8-5-6.9-7.8-10.2c-1.6-2-3-3.7-4.5-5.9C691.9,170.7,691.6,174.1,693.8,183.6z M703.4,155.2
				c1.3,6.7,0.9,13.5,2,20.2c-2.7-7.9-6.4-15.4-11.5-21.9c-5.1-5.7-8.8-12.4-12.5-19.1C689.6,140,700.9,144.3,703.4,155.2
				L703.4,155.2z M688.5,34.7c4.1,5.8,9,11,12.9,16.8c4,5.7,8.3,11.7,9.1,18.8v0c-2.5-2.7-5.1-5.9-7.7-8.7
				c-4.5-5.2-10.2-8.9-14.6-14.3c-1.6-2.4-2.4-5.3-2.7-8.2c-0.1-1.2,0.1-2.5-0.6-3.5c-0.2-3-0.7-6-1.3-9
				C685.1,29.5,686.7,32.2,688.5,34.7L688.5,34.7z M666.1,40.6c-4,6.3-9.2,11.9-14.2,17.3c1.2-3.7,2.3-7.5,3.6-11.2
				c1.9-4.3,4.2-8.5,7.3-12.1c3-3.6,6.8-6.3,10.4-9.2C671,30.5,668.8,35.7,666.1,40.6L666.1,40.6z M664.2,149.2
				c-4.6,8.7-9.4,17.2-14.3,25.7c-0.2-9.9,2-20.4,9.5-27.4c4.4-4.6,8.3-9.6,12.4-14.5C669.8,138.7,667.2,144,664.2,149.2
				L664.2,149.2z M684.4,93.2c-0.6-1.8-1.5-3.6-1.6-5.5c0-0.8-0.1-1.7-0.7-2.4c0-0.5,0.1-1.1,0.1-1.6c3,2.9,6.6,5.2,10.5,6.9
				c11.1,7.8,12.3,23.2,17.5,34.9C701.5,115.2,690.2,105.8,684.4,93.2L684.4,93.2z"/>
		</g>
	</g>
</g>
</svg>
